<?xml version="1.0" encoding="utf-8"?>
<!-- Generator: Adobe Illustrator 19.0.0, SVG Export Plug-In . SVG Version: 6.00 Build 0)  -->
<svg version="1.1" id="Layer_1" xmlns="http://www.w3.org/2000/svg" xmlns:xlink="http://www.w3.org/1999/xlink" x="0px" y="0px"
	 width="30px" height="30px" viewBox="0 0 30 30" style="enable-background:new 0 0 30 30;" xml:space="preserve">
<style type="text/css">
	.st0{fill:#FFFFFF;}
</style>
<g id="XMLID_23_">
	<g id="XMLID_30_">
		<g id="XMLID_37_">
			<path id="XMLID_38_" class="st0" d="M24.3,2.5c1.6,0,2.9,1.3,2.9,2.9v11.1c0,1.6-1.3,2.9-2.9,2.9H5.7c-1.6,0-2.9-1.3-2.9-2.9V5.4
				c0-1.6,1.3-2.9,2.9-2.9H24.3 M24.3,0.3H5.7c-2.8,0-5.1,2.3-5.1,5.1v11.1c0,2.8,2.3,5.1,5.1,5.1h18.6c2.8,0,5.1-2.3,5.1-5.1V5.4
				C29.4,2.6,27.1,0.3,24.3,0.3L24.3,0.3z"/>
		</g>
		<g id="XMLID_33_">
			<path id="XMLID_34_" class="st0" d="M19.4,27.2h-8.9v-7.6h8.9V27.2z M12.8,25h4.4v-3.1h-4.4V25z"/>
		</g>
		<g id="XMLID_31_">
			<rect id="XMLID_32_" x="5" y="28" class="st0" width="20" height="2"/>
		</g>
	</g>
	<g id="XMLID_24_">
		<g id="XMLID_28_">
			<polygon id="XMLID_29_" class="st0" points="8.9,13.6 6,10.7 8.9,7.9 10.4,9.4 9.1,10.7 10.4,12.1 			"/>
		</g>
		<g id="XMLID_26_">
			
				<rect id="XMLID_27_" x="13.3" y="4.8" transform="matrix(0.8978 0.4404 -0.4404 0.8978 6.2034 -5.2481)" class="st0" width="2.2" height="11.8"/>
		</g>
		<g id="XMLID_25_">
			<polygon id="XMLID_42_" class="st0" points="21.1,13.6 19.6,12.1 20.9,10.7 19.6,9.4 21.1,7.9 24,10.7 			"/>
		</g>
	</g>
</g>
</svg>
