<?xml version="1.0" encoding="UTF-8" standalone="no"?>
<svg
   xmlns:dc="http://purl.org/dc/elements/1.1/"
   xmlns:cc="http://creativecommons.org/ns#"
   xmlns:rdf="http://www.w3.org/1999/02/22-rdf-syntax-ns#"
   xmlns:svg="http://www.w3.org/2000/svg"
   xmlns="http://www.w3.org/2000/svg"
   xmlns:sodipodi="http://sodipodi.sourceforge.net/DTD/sodipodi-0.dtd"
   xmlns:inkscape="http://www.inkscape.org/namespaces/inkscape"
   version="1.1"
   id="Layer_1"
   x="0px"
   y="0px"
   width="400"
   height="400"
   viewBox="0 0 400 400"
   enable-background="new 0 0 612 792"
   xml:space="preserve">
<path
   style="fill-rule:evenodd"
   id="path7"
   d="m 384.22347,277.85403 c -10.18386,23.67385 -24.68138,44.78967 -42.75049,63.61895 -18.82928,18.06308 -39.9451,32.56663 -63.61292,42.23164 C 252.67191,394.38922 226.9649,400 200.25037,400 173.02303,400 147.0747,394.38922 122.1339,383.70462 97.95931,374.03961 76.84349,359.53606 58.52099,341.47298 40.20452,322.6437 25.95436,301.52788 15.77653,277.85403 5.09193,252.67191 0,226.95887 0,199.74359 0,173.02303 5.09193,147.0747 15.77653,122.1339 25.96039,97.96534 40.20452,76.84349 58.52099,58.520988 76.84349,40.204522 97.96534,25.95436 122.1339,15.776534 147.06867,5.091929 173.02303,0 200.25037,0 226.9649,0 252.67191,5.085896 277.86006,15.776534 301.52788,25.95436 322.6437,40.204522 341.47298,58.520988 359.54209,76.84349 374.03961,97.96534 384.22347,122.1339 394.90807,147.0747 400,173.02906 400,199.74359 c 0,27.21528 -5.09193,52.92832 -15.77653,78.11044 l 0,0 0,0 z M 369.71388,127.986 C 360.54961,106.10398 347.32508,86.5085 330.02217,69.465016 312.97266,52.668889 293.38321,39.438319 271.75457,30.020663 248.85296,20.349618 225.18514,15.770501 200.25037,15.770501 c -25.18815,0 -49.36275,4.579117 -72.26437,14.250162 C 106.35737,39.438319 87.01528,52.668889 69.45898,69.465016 52.66286,86.51453 39.43229,106.10398 30.01463,127.986 c -9.67105,22.90162 -14.25016,46.81679 -14.25016,71.75759 0,24.93477 4.57911,49.1154 14.25016,71.75156 9.41766,21.89409 22.64823,41.47751 39.44435,58.52702 17.5563,17.30894 36.89839,30.53348 58.52702,39.69774 22.90162,9.41766 47.07018,13.98471 72.26437,13.98471 24.93477,0 48.60259,-4.57308 71.5042,-13.98471 21.62864,-9.1703 41.21809,-22.3888 58.2676,-39.69774 17.30291,-17.04951 30.53348,-36.63293 39.69171,-58.52702 9.92444,-22.63616 14.50355,-46.81679 14.50355,-71.75156 0.006,-24.9408 -4.57911,-48.862 -14.50355,-71.75759 l 0,0 z"
   clip-rule="evenodd" /><polygon
   style="fill:#3b6898;fill-rule:evenodd"
   id="polygon9"
   points="300.886,407.838 309.195,407.838 312.695,401.512 313.666,407.838 327.331,407.838 321.764,380.635 308.394,380.635 305.23,387.721 305.23,387.721 301.941,380.635 288.444,380.635 282.961,407.838 296.584,407.838 297.639,401.555 "
   clip-rule="evenodd"
   transform="matrix(6.0330915,0,0,6.0330915,-1640.9768,-2182.6699)" /><path
   style="fill:#ffffff;fill-rule:evenodd"
   id="path11"
   d="m 263.11519,205.06478 c -2.67266,2.4253 -5.55045,4.64548 -8.63939,6.66053 l -0.53695,0.22323 -0.0905,0.17496 c -0.45248,0.29562 -0.911,0.57917 -1.38158,0.86273 l -0.57314,0.23529 -0.23529,0.23529 c -0.68778,0.41025 -1.38762,0.8024 -2.09952,1.18852 l -0.71794,0.36802 -0.0181,0.0241 c -0.68174,0.36802 -1.38157,0.71794 -2.08141,1.06182 l -0.44645,0.18703 -1.30918,0.64554 c -0.1267,0.0603 -0.24736,0.12066 -0.37405,0.16289 l -1.12216,0.45852 -1.78579,0.75414 -1.26695,0.50678 -0.12067,0.0845 c -1.6772,0.64554 -3.39663,1.24885 -5.15829,1.80389 l -1.08596,0.15083 -1.6591,0.66967 c -0.58521,0.1629 -1.17645,0.31976 -1.77372,0.47059 l -0.88687,0.12669 -8.4041,1.77976 -3.05274,0.51885 -7.63186,0.75413 v 0.0845 c -1.74356,0.13876 -3.51126,0.23529 -5.31515,0.30769 l -17.07969,-0.38612 -7.63186,-0.75414 -3.05274,-0.51884 -8.39806,-1.77977 -1.77977,-0.24735 -2.54596,-1.02563 -1.52637,-0.24736 -3.81895,-1.27298 -1.01356,-0.51884 -1.27298,-0.50678 -1.52637,-0.75414 -1.27299,-0.51885 -1.77976,-0.75413 -1.27298,-0.51885 -0.76017,-0.24736 -0.50678,-0.50677 -2.54596,-1.27299 -0.50678,-0.51884 -1.51431,-0.74811 -0.50678,-0.51884 -1.68323,-0.71794 c -0.0603,-0.0362 -0.11463,-0.0724 -0.16893,-0.12066 l -0.68777,-0.68174 -0.76017,-0.50678 -1.01959,-0.7662 -0.76017,-0.50678 -0.76017,-0.76017 -0.97736,-0.49472 c -0.0362,-0.0302 -0.0724,-0.0603 -0.11463,-0.0905 l -6.28648,-6.28648 -0.76017,-0.50678 0.76017,-0.25339 6.36491,-6.35888 1.01356,-0.50678 0.76017,-0.76017 0.76017,-0.50678 1.01959,-0.76017 0.76017,-0.50678 0.76017,-0.76017 1.77976,-1.01356 0.50678,-0.25339 1.52637,-1.01959 0.50678,-0.25339 2.54597,-1.27298 0.50678,-0.50678 0.76017,-0.50678 1.27298,-0.25339 1.77976,-1.0196 1.27298,-0.25339 1.52637,-1.01959 1.27299,-0.25339 1.01356,-0.50678 3.81894,-1.27298 1.52637,-0.50678 2.54597,-0.76017 1.77976,-0.50678 8.39806,-1.52637 3.05275,-0.50678 3.81291,-0.50678 3.81895,-0.25339 h 22.39484 l 7.63186,0.7662 3.05274,0.50678 6.99235,1.27298 c 1.41175,0.32579 2.80539,0.68174 4.16887,1.06183 l 1.56257,0.47058 1.12216,0.31975 c 1.59876,0.49472 3.1553,1.02563 4.68167,1.59877 l 0.56108,0.37405 0.8567,0.16893 c 0.30769,0.12066 0.61538,0.24736 0.911,0.36802 l 1.28505,0.73604 0.83256,0.16289 c 0.31976,0.13876 0.63348,0.28356 0.95323,0.43438 l 1.01356,0.67571 0.71191,0.14479 c 0.57314,0.27753 1.13422,0.56711 1.69529,0.8567 l 0.13273,0.27149 2.54597,1.27298 0.50678,0.25339 1.26091,0.72398 c 0.19909,0.12066 0.39215,0.24735 0.59728,0.36801 l 0.18099,0.181 0.9472,0.54297 c 0.36802,0.24133 0.73,0.48265 1.09199,0.73001 l 0.50678,0.50075 0.7481,0.38008 c 0.15686,0.11463 0.31975,0.22926 0.47661,0.34389 l 0.55505,0.55504 0.76017,0.50678 1.01959,0.76017 0.28959,0.19306 c 0.34388,0.27752 0.68174,0.56108 1.01959,0.84463 l 6.32871,6.08739 -4.56101,4.50672 0,0 z"
   clip-rule="evenodd" /><path
   style="fill-rule:evenodd"
   id="path13"
   d="m 222.1324,200.50376 c 0,6.10549 -2.03919,11.19742 -6.36492,15.78257 -4.07233,3.80688 -9.16426,5.84607 -15.26372,5.84607 -5.8521,0 -10.93799,-2.03919 -15.26975,-5.84607 -4.07234,-4.58515 -6.35888,-9.67708 -6.35888,-15.78257 0,-5.8521 2.28654,-10.94402 6.35888,-15.26975 4.32573,-4.07234 9.41765,-6.35888 15.26975,-6.35888 6.10549,0 11.19139,2.28654 15.26372,6.35888 4.33176,4.32573 6.36492,9.41765 6.36492,15.26975 l 0,0 z"
   clip-rule="evenodd" />
</svg>